<?xml version="1.0" encoding="utf-8"?>
<!-- Generator: Adobe Illustrator 18.0.0, SVG Export Plug-In . SVG Version: 6.00 Build 0)  -->
<!DOCTYPE svg PUBLIC "-//W3C//DTD SVG 1.1//EN" "http://www.w3.org/Graphics/SVG/1.1/DTD/svg11.dtd">
<svg version="1.1" id="Capa_1" xmlns="http://www.w3.org/2000/svg" xmlns:xlink="http://www.w3.org/1999/xlink" x="0px" y="0px"
	 viewBox="0 0 26 26" enable-background="new 0 0 26 26" xml:space="preserve">
<g>
	<circle fill="#DC7966" cx="13" cy="13" r="13"/>
	<line fill="none" stroke="#FFFFFF" stroke-width="0.9481" stroke-miterlimit="10" x1="19.9" y1="6.1" x2="6.1" y2="19.9"/>
	<line fill="none" stroke="#FFFFFF" stroke-width="0.9481" stroke-miterlimit="10" x1="19.9" y1="19.9" x2="6.1" y2="6.1"/>
	<g>
		
			<path fill="none" stroke="#FFFFFF" stroke-width="0.9481" stroke-linecap="round" stroke-linejoin="round" stroke-miterlimit="10" d="
			M13.9,3.2C11.1,3,8.2,3.9,6.1,6.1c-2.2,2.2-3.1,5-2.8,7.9c2-0.5,4.5-1.9,6.6-4.1C12,7.7,13.4,5.3,13.9,3.2z"/>
		
			<path fill="none" stroke="#FFFFFF" stroke-width="0.9481" stroke-linecap="round" stroke-linejoin="round" stroke-miterlimit="10" d="
			M22.7,11.6c-0.3-2-1.2-4-2.8-5.6c-1.7-1.7-3.8-2.6-6-2.8c-0.5,2-1.9,4.5-4.1,6.6c-2.2,2.2-4.6,3.6-6.6,4.1c0.2,2.2,1.1,4.3,2.8,6
			c1.6,1.6,3.5,2.5,5.6,2.8c0.4-2.1,1.9-4.7,4.2-6.9C18.1,13.5,20.6,12.1,22.7,11.6z"/>
		
			<path fill="none" stroke="#FFFFFF" stroke-width="0.9481" stroke-linecap="round" stroke-linejoin="round" stroke-miterlimit="10" d="
			M19.9,19.9c2.3-2.3,3.2-5.3,2.8-8.3c-2.1,0.4-4.7,1.9-6.9,4.2c-2.3,2.3-3.7,4.8-4.2,6.9C14.6,23.1,17.7,22.2,19.9,19.9z"/>
	</g>
</g>
</svg>
