<?xml version="1.0" encoding="utf-8"?>
<!-- Generator: Adobe Illustrator 18.0.0, SVG Export Plug-In . SVG Version: 6.00 Build 0)  -->
<!DOCTYPE svg PUBLIC "-//W3C//DTD SVG 1.1//EN" "http://www.w3.org/Graphics/SVG/1.1/DTD/svg11.dtd">
<svg version="1.1" id="Capa_1" xmlns="http://www.w3.org/2000/svg" xmlns:xlink="http://www.w3.org/1999/xlink" x="0px" y="0px"
	 viewBox="0 0 26 26" enable-background="new 0 0 26 26" xml:space="preserve">
<g>
	<circle fill="#DFD18B" cx="13" cy="13" r="13"/>
	
		<line fill="none" stroke="#FFFFFF" stroke-width="0.8254" stroke-linecap="round" stroke-miterlimit="10" x1="13" y1="4.5" x2="13" y2="8.8"/>
	
		<line fill="none" stroke="#FFFFFF" stroke-width="0.8254" stroke-linecap="round" stroke-miterlimit="10" x1="10.6" y1="4.8" x2="10.6" y2="7.6"/>
	
		<line fill="none" stroke="#FFFFFF" stroke-width="0.8254" stroke-linecap="round" stroke-miterlimit="10" x1="15.4" y1="4.8" x2="15.4" y2="7.6"/>
	<path fill="none" stroke="#FFFFFF" stroke-width="0.8351" stroke-miterlimit="10" d="M22.7,13c0-0.7-0.6-1.3-1.3-1.3v0
		c-0.6-4.1-4.2-7.2-8.4-7.2c-4.3,0-7.8,3.1-8.4,7.2c0,0,0,0,0,0c-0.7,0-1.3,0.6-1.3,1.3c0,0.7,0.6,1.3,1.3,1.3
		c0.6,4.1,4.2,7.2,8.4,7.2s7.8-3.1,8.4-7.2C22.1,14.3,22.7,13.7,22.7,13z"/>
	<line fill="none" stroke="#FFFFFF" stroke-width="0.8351" stroke-miterlimit="10" x1="4.6" y1="14.3" x2="21.4" y2="14.3"/>
</g>
</svg>
