<?xml version="1.0" encoding="utf-8"?>
<!-- Generator: Adobe Illustrator 18.0.0, SVG Export Plug-In . SVG Version: 6.00 Build 0)  -->
<!DOCTYPE svg PUBLIC "-//W3C//DTD SVG 1.1//EN" "http://www.w3.org/Graphics/SVG/1.1/DTD/svg11.dtd">
<svg version="1.1" id="Capa_1" xmlns="http://www.w3.org/2000/svg" xmlns:xlink="http://www.w3.org/1999/xlink" x="0px" y="0px"
	 viewBox="0 0 26 26" enable-background="new 0 0 26 26" xml:space="preserve">
<g>
	<circle fill="#738988" cx="13" cy="13" r="13"/>
	
		<circle fill="none" stroke="#FFFFFF" stroke-width="0.9481" stroke-linecap="round" stroke-linejoin="round" stroke-miterlimit="10" cx="13" cy="13" r="3.5"/>
	
		<path fill="none" stroke="#FFFFFF" stroke-width="0.9165" stroke-linecap="round" stroke-linejoin="round" stroke-miterlimit="10" d="
		M21.8,15.1v-4.2h-3c-0.1-0.2-0.1-0.4-0.2-0.5l2.1-2.1l-2.9-2.9l-2.1,2.1c-0.2-0.1-0.4-0.2-0.5-0.2v-3h-4.2v3
		c-0.2,0.1-0.4,0.1-0.5,0.2L8.3,5.3L5.3,8.3l2.1,2.1c-0.1,0.2-0.2,0.4-0.2,0.5h-3v4.2h3c0.1,0.2,0.1,0.4,0.2,0.5l-2.1,2.1l2.9,2.9
		l2.1-2.1c0.2,0.1,0.4,0.2,0.5,0.2v3h4.2v-3c0.2-0.1,0.4-0.1,0.5-0.2l2.1,2.1l2.9-2.9l-2.1-2.1c0.1-0.2,0.2-0.4,0.2-0.5H21.8z"/>
</g>
</svg>
