<?xml version="1.0" encoding="utf-8"?>
<!-- Generator: Adobe Illustrator 16.0.4, SVG Export Plug-In . SVG Version: 6.00 Build 0)  -->
<!DOCTYPE svg PUBLIC "-//W3C//DTD SVG 1.1//EN" "http://www.w3.org/Graphics/SVG/1.1/DTD/svg11.dtd">
<svg version="1.1" id="Layer_1" xmlns="http://www.w3.org/2000/svg" xmlns:xlink="http://www.w3.org/1999/xlink" x="0px" y="0px"
	 width="14.734px" height="28.531px" viewBox="0 0 14.734 28.531" enable-background="new 0 0 14.734 28.531" xml:space="preserve">
<path fill="none" stroke="#212121" stroke-width="1.5" stroke-linecap="round" stroke-linejoin="round" stroke-miterlimit="10" d="
	M0.797,15.114v-4.562h3.349V6.65c0-0.782,0.129-1.518,0.389-2.208S5.181,3.13,5.695,2.576s1.2-0.991,2.056-1.312
	c0.857-0.32,1.835-0.481,2.934-0.481c0.545,0,1.085,0.016,1.622,0.046s0.936,0.059,1.2,0.085l0.396,0.04l-0.105,4.258
	C12.864,5.204,11.893,5.2,10.882,5.2c-0.765,0-1.274,0.163-1.529,0.488S8.971,6.522,8.971,7.217v0.211v3.125h4.957l-0.224,4.562
	H8.971v12.669H4.146V15.114H0.797z"/>
</svg>
