<?xml version="1.0" encoding="utf-8"?>
<!-- Generator: Adobe Illustrator 18.0.0, SVG Export Plug-In . SVG Version: 6.00 Build 0)  -->
<!DOCTYPE svg PUBLIC "-//W3C//DTD SVG 1.1//EN" "http://www.w3.org/Graphics/SVG/1.1/DTD/svg11.dtd">
<svg version="1.1" id="Capa_1" xmlns="http://www.w3.org/2000/svg" xmlns:xlink="http://www.w3.org/1999/xlink" x="0px" y="0px"
	 viewBox="0 0 26 26" enable-background="new 0 0 26 26" xml:space="preserve">
<g>
	
		<circle fill="none" stroke="#FFFFFF" stroke-width="0.9165" stroke-linecap="round" stroke-miterlimit="10" cx="13" cy="13" r="9.8"/>
	<circle fill="#E68363" cx="13" cy="13" r="13"/>
	
		<circle fill="none" stroke="#FFFFFF" stroke-width="0.9481" stroke-linecap="round" stroke-linejoin="round" stroke-miterlimit="10" cx="13" cy="9.5" r="1.9"/>
	
		<circle fill="none" stroke="#FFFFFF" stroke-width="0.9481" stroke-linecap="round" stroke-linejoin="round" stroke-miterlimit="10" cx="18.3" cy="9.5" r="1.9"/>
	
		<path fill="none" stroke="#FFFFFF" stroke-width="0.9165" stroke-linecap="round" stroke-linejoin="round" stroke-miterlimit="10" d="
		M15.7,14.9c0-1.2-1-2.1-2.1-2.1h-1.2c-1.1,0-2,0.8-2.1,1.9c-0.1-1.1-1-1.9-2.1-1.9H6.9c-1.2,0-2.1,1-2.1,2.1v3.6"/>
	
		<path fill="none" stroke="#FFFFFF" stroke-width="0.9165" stroke-linecap="round" stroke-linejoin="round" stroke-miterlimit="10" d="
		M21.2,18.4v-3.6c0-1.2-1-2.1-2.1-2.1h-1.2c-1.1,0-2,0.8-2.1,1.9c-0.1-1.1-1-1.9-2.1-1.9h-1.2c-1.2,0-2.1,1-2.1,2.1"/>
	
		<circle fill="none" stroke="#FFFFFF" stroke-width="0.9481" stroke-linecap="round" stroke-linejoin="round" stroke-miterlimit="10" cx="7.6" cy="9.5" r="1.9"/>
	
		<line fill="none" stroke="#FFFFFF" stroke-width="0.9165" stroke-linecap="round" stroke-linejoin="round" stroke-miterlimit="10" x1="10.3" y1="14.9" x2="10.3" y2="18.4"/>
	
		<line fill="none" stroke="#FFFFFF" stroke-width="0.9165" stroke-linecap="round" stroke-linejoin="round" stroke-miterlimit="10" x1="15.7" y1="14.9" x2="15.7" y2="18.4"/>
</g>
</svg>
