<?xml version="1.0" encoding="utf-8"?>
<!-- Generator: Adobe Illustrator 18.0.0, SVG Export Plug-In . SVG Version: 6.00 Build 0)  -->
<!DOCTYPE svg PUBLIC "-//W3C//DTD SVG 1.1//EN" "http://www.w3.org/Graphics/SVG/1.1/DTD/svg11.dtd">
<svg version="1.1" id="Capa_1" xmlns="http://www.w3.org/2000/svg" xmlns:xlink="http://www.w3.org/1999/xlink" x="0px" y="0px"
	 viewBox="0 0 26 26" enable-background="new 0 0 26 26" xml:space="preserve">
<path fill="none" stroke="#FFFFFF" stroke-width="0.9165" stroke-linecap="round" stroke-miterlimit="10" d="M20.2,9.9h-4.1V5.8
	c0-1.3-1.1-2.4-2.4-2.4h-1.4c-1.3,0-2.4,1.1-2.4,2.4v4.1H5.8c-1.3,0-2.4,1.1-2.4,2.4v1.4c0,1.3,1.1,2.4,2.4,2.4h4.1v4.1
	c0,1.3,1.1,2.4,2.4,2.4h1.4c1.3,0,2.4-1.1,2.4-2.4v-4.1h4.1c1.3,0,2.4-1.1,2.4-2.4v-1.4C22.6,11,21.5,9.9,20.2,9.9z"/>
<g>
	<circle fill="#8595CB" cx="13" cy="13" r="13"/>
	
		<circle fill="none" stroke="#FFFFFF" stroke-width="0.9165" stroke-linecap="round" stroke-miterlimit="10" cx="13" cy="13" r="9.8"/>
	
		<circle fill="none" stroke="#FFFFFF" stroke-width="0.9165" stroke-linecap="round" stroke-miterlimit="10" cx="12.9" cy="13" r="6.4"/>
	
		<line fill="none" stroke="#FFFFFF" stroke-width="0.9165" stroke-linecap="round" stroke-miterlimit="10" x1="12.9" y1="9.5" x2="12.9" y2="7.3"/>
	
		<line fill="none" stroke="#FFFFFF" stroke-width="0.9165" stroke-linecap="round" stroke-miterlimit="10" x1="12.9" y1="18.7" x2="12.9" y2="16.5"/>
	
		<line fill="none" stroke="#FFFFFF" stroke-width="0.9165" stroke-linecap="round" stroke-miterlimit="10" x1="16.4" y1="13" x2="18.6" y2="13"/>
	
		<line fill="none" stroke="#FFFFFF" stroke-width="0.9165" stroke-linecap="round" stroke-miterlimit="10" x1="7.3" y1="13" x2="9.4" y2="13"/>
	
		<line fill="none" stroke="#FFFFFF" stroke-width="0.9165" stroke-linecap="round" stroke-miterlimit="10" x1="15.4" y1="10.5" x2="16.9" y2="9"/>
	
		<line fill="none" stroke="#FFFFFF" stroke-width="0.9165" stroke-linecap="round" stroke-miterlimit="10" x1="8.9" y1="17" x2="10.4" y2="15.5"/>
	
		<line fill="none" stroke="#FFFFFF" stroke-width="0.9165" stroke-linecap="round" stroke-miterlimit="10" x1="15.4" y1="15.5" x2="17" y2="17"/>
	
		<line fill="none" stroke="#FFFFFF" stroke-width="0.9165" stroke-linecap="round" stroke-miterlimit="10" x1="8.9" y1="9" x2="10.3" y2="10.4"/>
	
		<circle fill="none" stroke="#FFFFFF" stroke-width="0.9481" stroke-linecap="round" stroke-linejoin="round" stroke-miterlimit="10" cx="12.9" cy="13" r="3.5"/>
</g>
</svg>
