<?xml version="1.0" encoding="utf-8"?>
<!-- Generator: Adobe Illustrator 16.0.4, SVG Export Plug-In . SVG Version: 6.00 Build 0)  -->
<!DOCTYPE svg PUBLIC "-//W3C//DTD SVG 1.1//EN" "http://www.w3.org/Graphics/SVG/1.1/DTD/svg11.dtd">
<svg version="1.1" id="Layer_1" xmlns="http://www.w3.org/2000/svg" xmlns:xlink="http://www.w3.org/1999/xlink" x="0px" y="0px"
	 width="23.583px" height="19.542px" viewBox="0 0 23.583 19.542" enable-background="new 0 0 23.583 19.542" xml:space="preserve">
<path fill="none" stroke="#212121" stroke-width="1.5" stroke-linecap="round" stroke-linejoin="round" stroke-miterlimit="10" d="
	M0.833,16.698c0.358,0.043,0.716,0.064,1.074,0.064c2.098,0,3.967-0.645,5.607-1.934c-0.974-0.014-1.848-0.313-2.621-0.897
	s-1.304-1.33-1.59-2.24c0.301,0.057,0.583,0.086,0.849,0.086c0.408,0,0.802-0.054,1.182-0.161c-1.039-0.215-1.901-0.734-2.589-1.558
	S1.714,8.28,1.714,7.191V7.138c0.645,0.351,1.328,0.537,2.052,0.559C3.15,7.288,2.661,6.755,2.3,6.096
	C1.938,5.437,1.757,4.721,1.757,3.947c0-0.816,0.204-1.575,0.612-2.277C3.501,3.06,4.873,4.169,6.484,5
	c1.611,0.831,3.341,1.292,5.188,1.386c-0.079-0.351-0.118-0.691-0.118-1.021c0-1.246,0.44-2.31,1.321-3.19s1.944-1.321,3.19-1.321
	c1.311,0,2.41,0.473,3.298,1.418c1.01-0.2,1.962-0.565,2.857-1.096c-0.344,1.089-1.003,1.923-1.977,2.503
	c0.888-0.107,1.751-0.344,2.589-0.709c-0.602,0.91-1.354,1.687-2.256,2.331c0.014,0.258,0.021,0.451,0.021,0.58
	c0,0.852-0.091,1.713-0.274,2.583s-0.458,1.726-0.827,2.567c-0.369,0.841-0.815,1.644-1.337,2.406
	c-0.523,0.763-1.146,1.466-1.869,2.111c-0.724,0.645-1.509,1.203-2.358,1.676s-1.801,0.841-2.857,1.106
	c-1.057,0.265-2.165,0.397-3.325,0.397C5.252,18.729,2.946,18.052,0.833,16.698z"/>
</svg>
