<?xml version="1.0" encoding="utf-8"?>
<!-- Generator: Adobe Illustrator 18.0.0, SVG Export Plug-In . SVG Version: 6.00 Build 0)  -->
<!DOCTYPE svg PUBLIC "-//W3C//DTD SVG 1.1//EN" "http://www.w3.org/Graphics/SVG/1.1/DTD/svg11.dtd">
<svg version="1.1" id="Capa_1" xmlns="http://www.w3.org/2000/svg" xmlns:xlink="http://www.w3.org/1999/xlink" x="0px" y="0px"
	 viewBox="0 0 26 26" enable-background="new 0 0 26 26" xml:space="preserve">
<g>
	<circle fill="#78BD7E" cx="13" cy="13" r="13"/>
	<g>
		
			<path fill="none" stroke="#FFFFFF" stroke-width="0.8351" stroke-linecap="round" stroke-linejoin="round" stroke-miterlimit="10" d="
			M12.8,9.5c1.8,0,3.4,0.8,4.4,2.1c2.4-1,4.7-2.1,4.7-2.1l-9.2-4l-9.2,4l4.7,2.1C9.4,10.3,11,9.5,12.8,9.5z"/>
		
			<path fill="none" stroke="#FFFFFF" stroke-width="0.8351" stroke-linecap="round" stroke-linejoin="round" stroke-miterlimit="10" d="
			M8.4,11.5c-0.7,0.8-1.2,1.8-1.3,2.9h11.6c-0.2-1.1-0.6-2.1-1.3-2.9"/>
		
			<polygon fill="none" stroke="#FFFFFF" stroke-width="0.8351" stroke-linecap="round" stroke-linejoin="round" stroke-miterlimit="10" points="
			18.6,14.5 18.6,14.5 18.6,14.5 		"/>
	</g>
	
		<line fill="none" stroke="#FFFFFF" stroke-width="0.8351" stroke-linejoin="round" stroke-miterlimit="10" x1="5" y1="8.8" x2="5" y2="15.9"/>
	
		<circle fill="none" stroke="#FFFFFF" stroke-width="0.9481" stroke-linecap="round" stroke-linejoin="round" stroke-miterlimit="10" cx="5" cy="15.4" r="0.5"/>
	<path fill="none" stroke="#FFFFFF" stroke-width="0.8351" stroke-linejoin="round" stroke-miterlimit="10" d="M18.6,14.4
		c0,3.2-2.6,5.8-5.8,5.8c-3.2,0-5.8-2.6-5.8-5.8"/>
</g>
</svg>
