<?xml version="1.0" encoding="utf-8"?>
<!-- Generator: Adobe Illustrator 18.0.0, SVG Export Plug-In . SVG Version: 6.00 Build 0)  -->
<!DOCTYPE svg PUBLIC "-//W3C//DTD SVG 1.1//EN" "http://www.w3.org/Graphics/SVG/1.1/DTD/svg11.dtd">
<svg version="1.1" id="Capa_1" xmlns="http://www.w3.org/2000/svg" xmlns:xlink="http://www.w3.org/1999/xlink" x="0px" y="0px"
	 viewBox="0 0 26 26" enable-background="new 0 0 26 26" xml:space="preserve">
<circle fill="#EE797B" cx="13" cy="13" r="13"/>
<path fill="none" stroke="#FFFFFF" stroke-width="0.9165" stroke-linecap="round" stroke-miterlimit="10" d="M20.2,9.9h-4.1V5.8
	c0-1.3-1.1-2.4-2.4-2.4h-1.4c-1.3,0-2.4,1.1-2.4,2.4v4.1H5.8c-1.3,0-2.4,1.1-2.4,2.4v1.4c0,1.3,1.1,2.4,2.4,2.4h4.1v4.1
	c0,1.3,1.1,2.4,2.4,2.4h1.4c1.3,0,2.4-1.1,2.4-2.4v-4.1h4.1c1.3,0,2.4-1.1,2.4-2.4v-1.4C22.6,11,21.5,9.9,20.2,9.9z"/>
</svg>
